# xmcd
#
# Track frame offsets:
#	150
#	20665
#	38868
#	56730
#	76058
#	96867
#	123260
#	140752
#	165013
#	185172
#	211574
#	232132
#	254937
#	275099
#
# Disc length: 3993 seconds
#
# Revision: 0
# Processed by: cddbd v1.5.1PL2 Copyright (c) Steve Scherf et al.
# Submitted via: EasyCDDAExtractor 9.0.0.1
#
DISCID=ca0f970e
DTITLE=Dixie Chicks - Taking The Long Way
DYEAR=2006
DGENRE=Country
TTITLE0=The Long Way Around
TTITLE1=Easy Silence
TTITLE2=Not Ready To Make Nice
TTITLE3=Everybody Knows
TTITLE4=Bitter End
TTITLE5=Lullaby
TTITLE6=Lubbock Or Leave it
TTITLE7=Silent House
TTITLE8=Favorite Year
TTITLE9=Voice Inside My Head
TTITLE10=I Like It
TTITLE11=Baby Hold On
TTITLE12=So Hard
TTITLE13=I Hope
EXTD=
EXTT0=
EXTT1=
EXTT2=
EXTT3=
EXTT4=
EXTT5=
EXTT6=
EXTT7=
EXTT8=
EXTT9=
EXTT10=
EXTT11=
EXTT12=
EXTT13=
PLAYORDER=
